<?xml version="1.0" encoding="UTF-8"?>
<svg xmlns="http://www.w3.org/2000/svg" viewBox="0 0 168 168" width="168" height="168">
<path d="M76.33 17.29C81.44 17.29 86.56 17.29 91.67 17.29C120.68 18.79 148.98 47.53 150.72 76.33C150.71 81.44 150.71 86.56 150.71 91.67C149.34 120.24 120.32 149.34 91.67 150.71C86.56 150.71 81.44 150.71 76.33 150.71C47.58 149.17 18.82 120.49 17.29 91.67C17.29 86.56 17.29 81.44 17.29 76.33C18.82 47.52 47.52 18.82 76.33 17.29ZM56.9 47.06C45.69 49.3 50.2 64.61 61.77 61.27C70.89 58.64 65.69 45.3 56.9 47.06ZM50.17 66.86C48.77 69.44 49.68 74.24 49.68 77.17C49.68 85.28 49.68 93.39 49.68 101.5C49.68 103.93 48.55 110.18 50.03 112.13C50.8 113.15 65.03 113.44 66.67 112.82C69.06 111.91 68.14 97.74 68.14 94.83C68.14 88.28 68.14 81.72 68.14 75.17C68.14 73.08 68.94 69.16 67.85 67.3C67.08 66.01 64.7 66.49 63.49 66.5C59.46 66.55 53.94 65.46 50.17 66.86ZM93.38 112.06C95.93 110.36 94.67 107.01 94.67 104.17C94.67 97.96 92.23 80.7 100.51 79.34C104.72 78.66 107.02 83.03 107.33 86.5C107.86 92.28 107.33 98.36 107.33 104.17C107.33 106.46 106.69 109.77 108.02 111.67C108.44 113.29 121.09 113.6 122.88 112.7C124.65 111.81 124.14 109.46 124.14 107.83C124.12 103.06 124.14 98.28 124.14 93.5C124.14 92.05 124.8 88.72 123.39 87.96C122.43 76.68 119.12 65.11 104.84 67.34C101.59 67.85 97.35 71.54 95.5 71.67C95.33 70.61 95.17 69.56 95 68.5C94.54 68.08 94.08 67.67 93.62 67.25C92.66 66.05 80.01 66.17 78.17 66.86C76.66 69.65 77.68 75 77.68 78.17C77.68 85.94 77.68 93.72 77.68 101.5C77.68 104.44 76.81 108.97 77.81 111.74C78.46 113.54 92.54 113.46 93.38 112.06Z" fill="#ffffff" fill-rule="evenodd" stroke="#ffffff" stroke-width="0.25" stroke-linejoin="round"/>
<path d="M91.67 17.29C86.56 17.29 81.44 17.29 76.33 17.29C77.75 16.52 90.25 16.51 91.67 17.29ZM50.17 66.86C53.94 65.46 59.46 66.55 63.49 66.5C64.7 66.49 67.08 66.01 67.85 67.3C68.94 69.16 68.14 73.08 68.14 75.17C68.14 81.72 68.14 88.28 68.14 94.83C68.14 97.74 69.06 111.91 66.67 112.82C65.03 113.44 50.8 113.15 50.03 112.13C48.55 110.18 49.68 103.93 49.68 101.5C49.68 93.39 49.68 85.28 49.68 77.17C49.68 74.24 48.77 69.44 50.17 66.86ZM93.62 67.25C88.91 67.17 84.21 67.08 79.5 67C77.3 69.2 78.33 74.16 78.33 77.17C78.33 85.61 78.33 94.06 78.33 102.5C78.33 105.19 77.41 109.83 79.17 112C83.9 112.02 88.64 112.04 93.38 112.06C92.54 113.46 78.46 113.54 77.81 111.74C76.81 108.97 77.68 104.44 77.68 101.5C77.68 93.72 77.68 85.94 77.68 78.17C77.68 75 76.66 69.65 78.17 66.86C80.01 66.17 92.66 66.05 93.62 67.25ZM51.5 67C49.3 69.2 50.33 74.16 50.33 77.17C50.33 85.61 50.33 94.06 50.33 102.5C50.33 105.15 49.4 109.88 51.17 111.98C56.39 111.98 61.61 111.98 66.83 111.98C68.86 106.02 67.33 85.66 67.33 78.17C67.33 75.83 68.49 69.16 66.66 67.51C66.16 67.06 53.33 67.02 51.5 67ZM17.29 76.33C17.29 81.44 17.29 86.56 17.29 91.67C16.53 90.28 16.53 77.72 17.29 76.33ZM150.72 76.33C151.43 77.68 151.43 90.35 150.71 91.67C150.71 86.56 150.71 81.44 150.72 76.33ZM123.39 87.96C124.8 88.72 124.14 92.05 124.14 93.5C124.14 98.28 124.12 103.06 124.14 107.83C124.14 109.46 124.65 111.81 122.88 112.7C121.09 113.6 108.44 113.29 108.02 111.67C112.96 111.67 117.89 111.67 122.83 111.67C123.02 103.76 123.2 95.86 123.39 87.96ZM76.33 150.71C81.44 150.71 86.56 150.71 91.67 150.71C90.3 151.47 77.72 151.47 76.33 150.71Z" fill="#cacaca" fill-rule="evenodd" stroke="#cacaca" stroke-width="0.25" stroke-linejoin="round"/>
</svg>